<svg t="1705045641993" class="icon" viewBox="0 0 1024 1024" version="1.1" xmlns="http://www.w3.org/2000/svg" p-id="1797"
     width="22" height="22">
    <path d="M512.371862 1023.943012q-4.559077 0-9.186539-0.091182a510.103686 510.103686 0 0 1-192.620987-41.407813l-58.834884-25.211694 150.449528-165.55147 67.474334 61.330978L408.869425 919.825099c86.189344 22.02034 176.800992 16.09354 260.881763-17.894376 215.040247-86.884603 319.260739-332.550447 232.341942-547.590694a419.754185 419.754185 0 0 0-73.686076-119.846726L896.952771 174.41607a512.121078 512.121078 0 0 1-384.580909 849.58393zM129.101688 851.701097A511.824738 511.824738 0 0 1 710.304174 40.094275l66.106611 27.776174-173.244911 156.490306-61.114423-67.668095 61.365172-55.426974A420.893954 420.893954 0 0 0 197.32827 791.190752z"
          fill="#C8C8C8" p-id="1798"></path>
    <path d="M241.779267 675.230638l136.624129-330.054353h80.661463L595.631999 675.230638h-82.143163l-32.164285-76.204966H356.132306l-32.164285 76.204966z m177.199911-250.384489l-47.00408 115.299048h94.019557zM631.261183 675.230638V345.176285h70.266769V675.230638z"
          fill="#C8C8C8" p-id="1799"></path>
</svg>