<svg t="1699277223605" class="icon" viewBox="0 0 1024 1024" version="1.1" xmlns="http://www.w3.org/2000/svg" p-id="1590" id="mx_n_1699277223606" width="20" height="20"><path d="M834.584 301.333c0-72.603-59.07-131.667-131.667-131.667S571.25 228.73 571.25 301.333c0 43.125 20.841 81.473 52.979 105.504 0.748 8.73 3.325 77.421-96.903 92.838-54.334 8.359-98.445 24.855-133.827 45.438V305.905c35.669-23.581 59.25-64.037 59.25-109.905 0-72.603-59.07-131.667-131.667-131.667S189.415 123.397 189.415 196c0 45.868 23.582 86.324 59.25 109.905v412.192c-35.669 23.582-59.25 64.04-59.25 109.904 0 72.597 59.07 131.667 131.667 131.667s131.667-59.07 131.667-131.667c0-40.529-18.416-76.837-47.312-101.01l6.809 1.514c0.141-0.669 20.123-67.685 137.093-85.68 160.855-24.744 217.71-142.484 219.79-227.725 39.115-22.853 65.455-65.289 65.455-113.767zM321.083 116.999c43.563 0 79 35.437 79 79s-35.437 79-79 79-79-35.437-79-79 35.437-79 79-79z m0 790.002c-43.563 0-79-35.437-79-79s35.437-79 79-79 79 35.437 79 79-35.437 79-79 79z m381.834-526.668c-43.563 0-79-35.437-79-79s35.437-79 79-79 79 35.437 79 79-35.437 79-79 79z" p-id="1591" fill="#C2C2C2"></path></svg>