<svg t="1699192055542" class="icon" viewBox="0 0 1024 1024" version="1.1" xmlns="http://www.w3.org/2000/svg" p-id="7700" id="mx_n_1699192055543" width="24" height="24"><path d="M512 144.794c-247.162 0-447.527 161.007-447.527 359.62 0 82.45 34.532 158.417 92.605 219.078l-0.264 1.396-22.58 119.482c-4.195 22.198 17.213 40.612 38.534 33.146l114.764-40.186 27.887-9.765c59.339 23.353 126.052 36.469 196.58 36.469 247.162 0 447.527-161.007 447.527-359.62S759.162 144.794 512 144.794zM320.062 576.5c-35.346 0-64-28.654-64-64 0-35.346 28.654-64 64-64 35.346 0 64 28.654 64 64 0 35.346-28.654 64-64 64z m192.037 0c-35.346 0-64-28.654-64-64 0-35.346 28.654-64 64-64s64 28.654 64 64c0 35.346-28.653 64-64 64z m192.038 0c-35.346 0-64-28.654-64-64 0-35.346 28.654-64 64-64 35.346 0 64 28.654 64 64 0 35.346-28.654 64-64 64z" p-id="7701" fill="#C2C2C2"></path></svg>