<svg t="1702602689552" class="icon" viewBox="0 0 1024 1024" version="1.1" xmlns="http://www.w3.org/2000/svg" p-id="6881" width="24" height="24"><path d="M772.096 368.64H654.336V153.6c0-78.848-63.488-142.336-142.336-142.336S369.664 74.752 369.664 153.6v215.04H251.904c-94.208 0-171.008 76.8-171.008 171.008v59.392c0 53.248 44.032 97.28 97.28 97.28h4.096l-51.2 121.856c-18.432 43.008-13.312 92.16 12.288 132.096 25.6 38.912 69.632 62.464 116.736 62.464h501.76c48.128 0 92.16-23.552 117.76-64.512 25.6-39.936 29.696-90.112 9.216-133.12L833.536 696.32h12.288c53.248 0 97.28-44.032 97.28-97.28v-59.392c0-95.232-76.8-171.008-171.008-171.008zM451.584 153.6c0-32.768 26.624-60.416 60.416-60.416 32.768 0 60.416 26.624 60.416 60.416v215.04H451.584V153.6zM808.96 904.192c-11.264 16.384-28.672 26.624-49.152 26.624h-501.76c-19.456 0-36.864-9.216-48.128-25.6s-12.288-35.84-5.12-54.272l63.488-150.528h12.288v124.928c0 22.528 18.432 40.96 40.96 40.96s40.96-18.432 40.96-40.96v-122.88-2.048h40.96v124.928c0 22.528 18.432 40.96 40.96 40.96s40.96-18.432 40.96-40.96v-122.88-3.072h40.96v125.952c0 22.528 18.432 40.96 40.96 40.96s40.96-18.432 40.96-40.96v-122.88-4.096h40.96v126.976c0 22.528 18.432 40.96 40.96 40.96s40.96-18.432 40.96-40.96v-122.88-5.12h14.336L815.104 849.92c6.144 16.384 5.12 36.864-6.144 54.272z m52.224-306.176c0 8.192-7.168 15.36-15.36 15.36H178.176c-8.192 0-15.36-7.168-15.36-15.36v-59.392c0-49.152 39.936-89.088 89.088-89.088h520.192c49.152 0 89.088 39.936 89.088 89.088v59.392z" fill="#C2C2C2" p-id="6882"></path></svg>
