<svg t="1699192486172" class="icon" viewBox="0 0 1024 1024" version="1.1" xmlns="http://www.w3.org/2000/svg" p-id="1891" width="24" height="24"><path d="M512 0C230.4 0 0 230.4 0 512s230.4 512 512 512 512-230.4 512-512S793.6 0 512 0z m184.32 619.52c20.48 20.48 20.48 56.32 0 76.8-10.24 10.24-25.6 15.36-40.96 15.36s-25.6-5.12-40.96-15.36L512 588.8l-107.52 107.52c-10.24 10.24-25.6 15.36-40.96 15.36s-25.6-5.12-40.96-15.36c-20.48-20.48-20.48-56.32 0-76.8L435.2 512l-107.52-107.52c-20.48-20.48-20.48-56.32 0-76.8s56.32-20.48 76.8 0L512 435.2l107.52-107.52c20.48-20.48 56.32-20.48 76.8 0s20.48 56.32 0 76.8L588.8 512l107.52 107.52z" p-id="1892" fill="#C2C2C2"></path></svg>