<svg t="1699847221063" class="icon" viewBox="0 0 1024 1024" version="1.1" xmlns="http://www.w3.org/2000/svg" p-id="3329"
     width="24" height="24">
    <path d="M657.85664 486.912c0 31.232-23.04 56.768-52.16 56.768-28.672 0-52.16-25.6-52.16-56.768s23.04-56.768 52.16-56.768c29.12 0 52.16 25.6 52.16 56.768z m-238.848-56.768c-29.184 0-52.224 25.6-52.224 56.768 0 31.232 23.552 56.768 52.224 56.768 29.12 0 52.16-25.6 52.16-56.768 0.512-31.168-23.04-56.768-52.16-56.768z m540.16-323.776V1024c-128.896-113.92-87.68-76.16-237.376-215.36l27.136 94.656H168.83264A105.088 105.088 0 0 1 64.00064 797.888V106.368C64.00064 48.064 111.04064 1.024 168.83264 1.024h685.44c57.792 0 104.832 47.04 104.832 105.344z m-145.792 484.928c0-164.736-73.664-298.24-73.664-298.24-73.664-55.232-143.744-53.76-143.744-53.76l-7.168 8.256c86.976 26.56 127.36 64.96 127.36 64.96-121.472-66.56-264.256-66.56-382.08-14.848a544.192 544.192 0 0 0-30.208 14.848s42.496-40.384 134.528-67.008l-5.12-6.144s-70.08-1.536-143.68 53.76c0 0-73.664 133.44-73.664 298.176 0 0 42.944 74.112 155.968 77.696 0 0 18.944-23.04 34.304-42.432-64.96-19.456-89.536-60.352-89.536-60.352 7.552 5.248 19.968 12.096 20.992 12.8 86.336 48.32 208.96 64.192 319.168 17.92 17.92-6.656 37.824-16.384 58.88-30.208 0 0-25.6 41.92-92.672 60.864 15.36 19.456 33.792 41.408 33.792 41.408 113.024-3.584 156.544-77.696 156.544-77.696z"
          fill="#FFFFFF" p-id="3330"></path>
</svg>