<svg t="1704976064359" class="icon" viewBox="0 0 1024 1024" version="1.1" xmlns="http://www.w3.org/2000/svg" p-id="1929"
     width="22" height="22">
    <path d="M753.312 698.848 753.312 383.6736c0-62.048-50.3104-112.3264-112.288-112.3264L395.3024 271.3472 324.288 271.3472l-53.7344 0-29.536 0c-62.048 0-112.288 50.272-112.288 112.3264l0 400.0512c0 61.9776 50.24 112.2752 112.288 112.2752l400.0128 0c62.048 0 112.288-50.2976 112.288-112.2752l0-31.0656 0.8768 0 0-54.0352C753.888 698.624 753.6768 698.7776 753.312 698.848zM660.6016 681.728l0 42.5984c0 0.864-0.2368 1.792-0.2368 2.6688-1.4272 42.3552-36.064 76.3008-78.7328 76.3008L300.3392 803.296c-43.5968 0-78.9056-35.3664-78.9056-78.9696L221.4336 442.9888c0-42.2336 33.2608-76.4928 75.0144-78.5984 1.2928-0.064 2.5984-0.3712 3.8912-0.3712l41.4272 0L581.632 364.0192c43.6608 0 78.9696 35.4048 78.9696 78.9696L660.6016 681.728zM895.1232 555.5008 895.1232 240.3264c0-62.048-50.3104-112.3264-112.288-112.3264L537.1136 128 466.0992 128l-53.7344 0-29.536 0c-62.048 0-112.288 50.272-112.288 112.3264l0 4.4736 115.0784 0c13.4912-13.8112 32.0256-22.72 52.6464-23.7568 1.2864-0.064 2.592-0.3712 3.8848-0.3712l41.4272 0 239.8656 0c43.6608 0 78.9696 35.4048 78.9696 78.9696l0 238.7328 0 42.5984c0 0.864-0.2368 1.792-0.2368 2.6688-0.8768 25.9136-14.208 48.6336-34.176 62.4l0 106.6048 14.8352 0c62.048 0 112.288-50.2976 112.288-112.2752l0-31.0656L896 609.3056l0-54.0352C895.6992 555.2768 895.488 555.424 895.1232 555.5008z"
          fill="#C8C8C8" p-id="1930"></path>
</svg>