<svg t="1699192248986" class="icon" viewBox="0 0 1024 1024" version="1.1" xmlns="http://www.w3.org/2000/svg" p-id="6145" width="24" height="24"><path d="M512 1024a512 512 0 1 1 512-512 512 512 0 0 1-512 512z m257.536-691.584l-166.1952-166.4h-0.512l-25.6-25.6-30.464 30.4896-271.4112 272.3584-12.6464 12.6464-13.1584 147.2a73.6 73.6 0 0 0 82.816 82.8416l147.6864-13.2096 12.6464-12.6464 271.8464-271.7184 30.464-30.4896zM780.8 742.4h-512a38.4 38.4 0 1 0 0 76.8h512a38.4 38.4 0 1 0 0-76.8zM503.3728 317.056l64.384-64.4096 115.2 115.2-64.4608 64.4864z m-49.1264 279.7312l-114.9184 10.24a9.9328 9.9328 0 0 1-10.8032-10.9824l10.24-114.6624 103.5264-103.2192 115.2 115.2z" p-id="6146" fill="#644d47"></path></svg>