<svg t="1704371058333" class="icon" viewBox="0 0 1024 1024" version="1.1" xmlns="http://www.w3.org/2000/svg" p-id="2306" width="24" height="24"><path d="M395.9 406H288.5c-2.8 0-5.7-0.7-8.1-2.4-18.4-13.1-18.2-34.3-6.4-46.3l217.6-220.9c11.1-11.2 29.2-11.4 40.4-0.3l0.3 0.3 217.7 221c11.1 11.3 10.9 29.4-0.4 40.4-5.3 5.2-12.5 8.2-19.9 8.2H628.1v215.7c0 7.9-6.4 14.3-14.3 14.3H410.2c-7.9 0-14.3-6.4-14.3-14.3V406zM283.3 652.4v87.5c0 7.9 6.4 14.3 14.3 14.3h428.8c7.9 0 14.3-6.4 14.3-14.3v-87.5c0-7.9 6.4-14.3 14.3-14.3h142.9c7.9 0 14.3 6.4 14.3 14.3V914c0 7.9-6.4 14.3-14.3 14.3H126.1c-7.9 0-14.3-6.4-14.3-14.3V652.4c0-7.9 6.4-14.3 14.3-14.3H269c7.9 0 14.3 6.4 14.3 14.3z" p-id="2307" fill="#BDBDBD"></path></svg>