<svg t="1699192248986" class="icon" viewBox="0 0 512 512" version="1.1" xmlns="http://www.w3.org/2000/svg" p-id="6145"
     width="512" height="512">
  <g xmlns="http://www.w3.org/2000/svg" clip-path="url(#clip0_699_15212)">
    <path fill-rule="evenodd" clip-rule="evenodd" d="M237 39.0408V461.693C237 469.397 228.655 474.208 221.988 470.346L151.918 429.764C130.306 417.247 117 394.164 117 369.19V148.892C117 123.917 130.306 100.834 151.918 88.3177L237 39.0408Z" fill="url(#paint0_linear_699_15212)" style="&#10;    fill: #C2C2C2;&#10;"/>
    <path d="M395.075 127.51L237 39V167.541L283.451 192.041L395.075 127.51Z" fill="url(#paint1_linear_699_15212)"/>
    <path d="M395.075 127.51L237 39V167.541L283.451 192.041L395.075 127.51Z" fill="url(#paint2_linear_699_15212)" style="&#10;    fill: #C2C2C2;&#10;"/>
    <path fill-rule="evenodd" clip-rule="evenodd" d="M255.5 231.426C255.5 217.184 263.073 204.017 275.382 196.854L395 127.248V216.101C395 241.03 381.742 264.078 360.193 276.611L270.528 328.76C263.861 332.637 255.5 327.828 255.5 320.116L255.5 231.426Z" fill="url(#paint3_linear_699_15212)" style="&#10;    fill: #C2C2C2;&#10;"/>
  </g>
</svg>
