<svg t="1699191593193" class="icon" viewBox="0 0 1024 1024" version="1.1" xmlns="http://www.w3.org/2000/svg" p-id="7060" width="24" height="24"><path d="M956.193 700.167l-51.299-257.918c-16.335-82.127-96.894-135.955-179.02-119.62h-0.001c-64.155 12.761-73.369 30.369-120.525 70.672-14.751 12.608-43.279 20.005-74.206 22.204l-0.004-0.076c-1.71-33.053-5.266-101.83 34.395-143.289 25.302-26.45 66.219-39.645 121.705-39.248l16.916 0.125c54.967 0.421 107.369-11.802 147.539-34.368 21.063-11.833 37.915-26.009 50.088-42.134 13.874-18.379 21.289-39.203 21.443-60.221 0.13-17.672-14.091-32.104-31.764-32.234l-0.24-0.001c-17.563 0-31.865 14.173-31.994 31.765-0.258 35.085-66.462 73.829-154.602 73.195l-16.916-0.125c-73.773-0.548-130.45 19.311-168.423 59.005-25.771 26.94-42.347 62.578-49.266 105.925-4.876 30.55-4.043 59.363-3.109 78.709-20.891-3.666-38.877-10.074-49.592-19.232-47.155-40.303-56.371-57.911-120.526-70.672-82.126-16.334-162.685 37.494-179.02 119.621L66.474 700.167c-16.334 82.125 37.495 162.685 119.621 179.021h0.001c82.125 16.334 162.685-37.495 179.02-119.621l1.276-6.413h289.886l1.276 6.413c16.335 82.125 96.894 135.955 179.02 119.621 82.124-16.336 135.954-96.895 119.619-179.021zM377.511 570.488h-66.569v66.569c0 14.705-11.923 26.628-26.628 26.628s-26.628-11.923-26.628-26.628v-66.569h-66.569c-14.705 0-26.628-11.923-26.628-26.628s11.923-26.628 26.628-26.628h66.569v-66.569c0-14.705 11.923-26.628 26.628-26.628s26.628 11.923 26.628 26.628v66.569h66.569c14.705 0 26.628 11.923 26.628 26.628s-11.923 26.628-26.628 26.628z m360.875-133.839c24.381 0 44.146 19.765 44.146 44.146s-19.765 44.146-44.146 44.146-44.146-19.765-44.146-44.146 19.765-44.146 44.146-44.146z m-97.752 158.056c-21.115-12.191-28.349-39.19-16.159-60.304 12.191-21.115 39.19-28.349 60.304-16.159 21.115 12.19 28.349 39.19 16.159 60.304s-39.189 28.349-60.304 16.159z m135.983 59.52c-12.19 21.115-39.19 28.349-60.304 16.159-21.115-12.191-28.349-39.19-16.159-60.304s39.19-28.349 60.304-16.159c21.115 12.19 28.35 39.189 16.159 60.304z m75.679-75.679c-12.191 21.115-39.19 28.349-60.304 16.159s-28.349-39.19-16.159-60.304c12.191-21.115 39.19-28.349 60.304-16.159 21.115 12.19 28.349 39.19 16.159 60.304z" fill="#C2C2C2" p-id="7061"></path></svg>