<svg t="1702602798409" class="icon" viewBox="0 0 1025 1024" version="1.1" xmlns="http://www.w3.org/2000/svg" p-id="2515" id="mx_n_1702602798412" width="24" height="24"><path d="M793.498 66c44.459 0 80.5 36.041 80.5 80.5L874 596.946c-20.863-7.371-43.314-11.382-66.702-11.382-110.512 0-200.1 89.547-200.1 200.009 0 73.447 39.608 137.648 98.637 172.427l-464.335-0.005c-44.459 0-80.5-36.041-80.5-80.5V146.5c0-44.459 36.041-80.5 80.5-80.5h551.998zM588.812 539.585H252.986c-16.506 0-29.886 13.38-29.886 29.886s13.38 29.887 29.886 29.887h335.826c16.506 0 29.887-13.381 29.887-29.887s-13.38-29.886-29.887-29.886z m193.2-160.927H252.986c-16.506 0-29.886 13.38-29.886 29.886s13.38 29.887 29.886 29.887h529.026c16.506 0 29.886-13.38 29.886-29.887 0-16.505-13.38-29.886-29.886-29.886z m-193.2-160.927H252.986c-16.506 0-29.886 13.38-29.886 29.886s13.38 29.887 29.886 29.887h335.826c16.506 0 29.887-13.38 29.887-29.887 0-16.505-13.38-29.886-29.887-29.886z" fill="#C2C2C2" p-id="2516"></path><path d="M807.5 613c95.27 0 172.5 77.23 172.5 172.5S902.77 958 807.5 958 635 880.77 635 785.5 712.23 613 807.5 613z m15.365 78.2c-6.682 0-12.099 5.417-12.099 12.099v90.556l-64.15 63.379-0.098 0.097c-4.582 4.634-4.54 12.105 0.094 16.688 4.704 4.651 12.275 4.653 16.982 0.003l67.99-67.172 0.098-0.097a11.782 11.782 0 0 0 3.283-10.025l-0.001-93.43c0-6.681-5.417-12.098-12.099-12.098z" fill="#C2C2C2" p-id="2517"></path></svg>
