<svg t="1699437329940" class="icon" viewBox="0 0 1024 1024" version="1.1" xmlns="http://www.w3.org/2000/svg" p-id="4101" width="24" height="24"><path d="M985.6 288H102.4V179.2c0-64 51.2-108.8 108.8-108.8h665.6c64 0 108.8 51.2 108.8 108.8v108.8z m0 57.6v499.2c0 64-51.2 108.8-108.8 108.8H211.2c-64 0-108.8-51.2-108.8-108.8V345.6h883.2z m-108.8-108.8c32 0 57.6-25.6 57.6-57.6s-25.6-57.6-57.6-57.6-57.6 25.6-57.6 57.6 25.6 57.6 57.6 57.6z m-166.4 0c32 0 57.6-25.6 57.6-57.6s-25.6-57.6-57.6-57.6-57.6 25.6-57.6 57.6 25.6 57.6 57.6 57.6z m-166.4 0c32 0 57.6-25.6 57.6-57.6s-25.6-57.6-57.6-57.6-57.6 25.6-57.6 57.6 25.6 57.6 57.6 57.6z m-140.8 441.6l-57.6-57.6 57.6-57.6c12.8-12.8 12.8-32 0-51.2h-25.6c-6.4 0-19.2 0-25.6 6.4L275.2 601.6c-6.4 6.4-6.4 12.8-6.4 19.2 0 6.4 0 19.2 12.8 25.6l76.8 76.8c6.4 6.4 12.8 12.8 25.6 12.8s19.2-6.4 25.6-12.8c6.4-12.8 6.4-32-6.4-44.8z m224-172.8c6.4-19.2 0-38.4-19.2-44.8-6.4-6.4-19.2-6.4-25.6 0-6.4 0-12.8 6.4-19.2 19.2l-128 320c-6.4 19.2 0 38.4 19.2 44.8h12.8c12.8 0 25.6-6.4 32-19.2l128-320z m185.6 140.8c6.4-6.4 12.8-12.8 12.8-25.6 0-6.4-6.4-19.2-12.8-25.6l-76.8-76.8c-6.4-6.4-12.8-6.4-25.6-6.4-6.4 0-19.2 0-25.6 6.4-12.8 12.8-12.8 32 0 51.2l57.6 57.6-57.6 57.6c-12.8 12.8-12.8 32 0 51.2 6.4 6.4 12.8 12.8 25.6 12.8 6.4 0 19.2-6.4 25.6-12.8l76.8-89.6z m0 0" fill="#C2C2C2" p-id="4102"></path></svg>