<svg t="1704371015375" class="icon" viewBox="0 0 1024 1024" version="1.1" xmlns="http://www.w3.org/2000/svg" p-id="2008" width="24" height="24"><path d="M628.1 357.9h107.4c2.8 0 5.7 0.7 8.1 2.4 18.4 13.1 18.2 34.3 6.4 46.3L532.4 627.5c-11.1 11.2-29.2 11.4-40.4 0.3l-0.3-0.3-217.6-220.9c-11.1-11.3-10.9-29.4 0.4-40.4 5.3-5.2 12.5-8.2 19.9-8.2H396V142.3c0-7.9 6.4-14.3 14.3-14.3h203.5c7.9 0 14.3 6.4 14.3 14.3v215.6zM283.4 652.4v87.5c0 7.9 6.4 14.3 14.3 14.3h428.8c7.9 0 14.3-6.4 14.3-14.3v-87.5c0-7.9 6.4-14.3 14.3-14.3H898c7.9 0 14.3 6.4 14.3 14.3V914c0 7.9-6.4 14.3-14.3 14.3H126.2c-7.9 0-14.3-6.4-14.3-14.3V652.4c0-7.9 6.4-14.3 14.3-14.3h142.9c7.9 0 14.3 6.4 14.3 14.3z" p-id="2009" fill="#BDBDBD"></path></svg>