<svg t="1699189843243" class="icon" viewBox="0 0 1024 1024" version="1.1" xmlns="http://www.w3.org/2000/svg" p-id="1514"
     width="24" height="24">
    <path d="M315.63 118.583H95.098c-17.6 0-32 14.4-32 32v746.918c0 17.6 14.4 32 32 32H315.63c17.6 0 32-14.4 32-32V150.583c0-17.6-14.4-32-32-32z m-39.133 245.399H134.231c-17.673 0-32-14.327-32-32s14.327-32 32-32h142.266c17.673 0 32 14.327 32 32s-14.327 32-32 32z m0-113.813H134.231c-17.673 0-32-14.327-32-32s14.327-32 32-32h142.266c17.673 0 32 14.327 32 32s-14.327 32-32 32zM571.71 118.583h-149.4c-17.6 0-32 14.4-32 32v746.918c0 17.6 14.4 32 32 32h149.4c17.6 0 32-14.4 32-32V150.583c0-17.6-14.4-32-32-32z m-10.68 245.399H432.99c-17.673 0-32-14.327-32-32s14.327-32 32-32h128.04c17.673 0 32 14.327 32 32s-14.327 32-32 32z m0-113.813H432.99c-17.673 0-32-14.327-32-32s14.327-32 32-32h128.04c17.673 0 32 14.327 32 32s-14.327 32-32 32zM955.119 872.454L819.663 152.356c-3.254-17.297-20.068-28.786-37.364-25.533l-135.388 25.468c-17.297 3.254-28.786 20.067-25.533 37.364l135.456 720.098c3.254 17.297 20.068 28.786 37.364 25.533l135.388-25.468c17.297-3.254 28.787-20.067 25.533-37.364z m-308.92-627.011a32.044 32.044 0 0 1-1.002-7.949c0.005-14.272 9.629-27.279 24.094-30.971l102.455-26.15c17.122-4.372 34.548 5.967 38.92 23.092a32.044 32.044 0 0 1 1.002 7.949c-0.005 14.272-9.629 27.279-24.094 30.971l-102.455 26.15a32.046 32.046 0 0 1-7.938 1.002c-14.276 0-27.288-9.624-30.982-24.094z m169.523 107.219l-102.455 26.151a32.046 32.046 0 0 1-7.938 1.002c-14.276 0-27.289-9.625-30.982-24.094a32.044 32.044 0 0 1-1.002-7.949c0.005-14.272 9.629-27.279 24.094-30.971l102.455-26.151c17.122-4.372 34.548 5.967 38.92 23.092a32.044 32.044 0 0 1 1.002 7.949c-0.005 14.272-9.629 27.279-24.094 30.971z"
          p-id="1515" fill="#C2C2C2"></path>
</svg>