<svg t="1702527829872" class="icon" viewBox="0 0 1024 1024" version="1.1" xmlns="http://www.w3.org/2000/svg" p-id="3017" width="24" height="24"><path d="M895.9972 345.152201V266.176448L641.149996 0.00128H206.655354a85.311733 85.311733 0 0 0-85.887731 83.967738v26.111918h-34.879891A85.311733 85.311733 0 0 0 0 194.432672v745.59767A85.311733 85.311733 0 0 0 85.887732 1023.99808h603.454114a85.311733 85.311733 0 0 0 85.887731-83.967738v-26.111918h34.879891A85.311733 85.311733 0 0 0 895.9972 829.950686z m-285.887107 433.406646a28.223912 28.223912 0 0 1-28.223911 27.583914H189.759407a28.287912 28.287912 0 0 1-28.223912-27.583914v-4.607986a28.415911 28.415911 0 0 1 28.223912-27.647913h392.126775a28.351911 28.351911 0 0 1 28.223911 27.647913z m0-178.751441a28.287912 28.287912 0 0 1-28.223911 27.647913H189.759407a28.351911 28.351911 0 0 1-28.223912-27.647913V595.19942a28.287912 28.287912 0 0 1 28.223912-27.583914h392.126775a28.223912 28.223912 0 0 1 28.223911 27.583914zM531.710338 400.384029a39.743876 39.743876 0 0 1-27.711913-11.199965 38.015881 38.015881 0 0 1-11.519964-27.135915v-191.9994L714.429767 403.20002z m303.103053-63.295802v479.9985a38.719879 38.719879 0 0 1-39.167877 38.39988h-20.031938V376.640103L520.318374 110.080936H178.815441v-13.439958a37.951881 37.951881 0 0 1 11.455964-27.135915 39.807876 39.807876 0 0 1 27.775914-11.199965h392.062774l223.9993 233.53527z" p-id="3018" fill="#C2C2C2"></path></svg>