<svg width="79" height="33" viewBox="0 0 79 33" fill="none" xmlns="http://www.w3.org/2000/svg">
<rect y="2" width="14" height="20" rx="5" fill="#ddb97e"/>
<rect x="16" y="2" width="14" height="20" rx="5" fill="#fffda2"/>
<rect y="24" width="30" height="8" rx="4" fill="#a5ff7c"/>
<path fill-rule="evenodd" clip-rule="evenodd" d="M5 24C5.55229 24 6 23.5523 6 23C6 22.4477 5.55229 22 5 22H9C8.44771 22 8 22.4477 8 23C8 23.5523 8.44771 24 9 24H5Z" fill="url(#paint0_linear_33_18)"/>
<path fill-rule="evenodd" clip-rule="evenodd" d="M21 24C21.5523 24 22 23.5523 22 23C22 22.4477 21.5523 22 21 22H25C24.4477 22 24 22.4477 24 23C24 23.5523 24.4477 24 25 24H21Z" fill="url(#paint1_linear_33_18)"/>
<path fill-rule="evenodd" clip-rule="evenodd" d="M14 10C14 10.5523 14.4477 11 15 11C15.5523 11 16 10.5523 16 10L16 14C16 13.4477 15.5523 13 15 13C14.4477 13 14 13.4477 14 14L14 10Z" fill="url(#paint2_linear_33_18)"/>
<defs>
<linearGradient id="paint0_linear_33_18" x1="7" y1="22" x2="7" y2="24" gradientUnits="userSpaceOnUse">
<stop stop-color="#6756BD"/>
<stop offset="1" stop-color="#FAE387"/>
</linearGradient>
<linearGradient id="paint1_linear_33_18" x1="23" y1="22" x2="23" y2="24" gradientUnits="userSpaceOnUse">
<stop stop-color="#4987FC"/>
<stop offset="1" stop-color="#FAE387"/>
</linearGradient>
<linearGradient id="paint2_linear_33_18" x1="16" y1="12" x2="14" y2="12" gradientUnits="userSpaceOnUse">
<stop stop-color="#4987FC"/>
<stop offset="1" stop-color="#6756BD"/>
</linearGradient>
</defs>
</svg>
